<mxfile host="Electron" modified="2024-05-25T17:55:34.798Z" agent="Mozilla/5.0 (Windows NT 10.0; WOW64) AppleWebKit/537.36 (KHTML, like Gecko) draw.io/24.4.0 Chrome/120.0.6099.109 Electron/28.1.0 Safari/537.36" etag="hmrFD1S3k6K3QaeDRHdn" version="24.4.0" type="device">
  <diagram name="Страница — 1" id="ylHivduRUZQ0G19HW5M8">
    <mxGraphModel dx="1562" dy="916" grid="1" gridSize="10" guides="1" tooltips="1" connect="1" arrows="1" fold="1" page="1" pageScale="1" pageWidth="827" pageHeight="1169" math="0" shadow="0">
      <root>
        <mxCell id="0" />
        <mxCell id="1" parent="0" />
        <mxCell id="RoErsjgwMX1CylctrKXX-1" value="&lt;div style=&quot;background-color: rgb(255, 255, 255); font-family: Consolas, &amp;quot;Courier New&amp;quot;, monospace; font-weight: normal; font-size: 14px; line-height: 19px; white-space: pre;&quot;&gt;&lt;span style=&quot;font-weight: bold;&quot;&gt;&lt;font color=&quot;#0000cc&quot;&gt;CacheInvalidationLifetime&lt;/font&gt;&lt;/span&gt;&lt;/div&gt;" style="swimlane;whiteSpace=wrap;html=1;" vertex="1" parent="1">
          <mxGeometry x="70" y="240" width="240" height="110" as="geometry" />
        </mxCell>
        <mxCell id="RoErsjgwMX1CylctrKXX-2" value="&lt;font color=&quot;#cc00cc&quot;&gt;CacheInvalidationEvent&lt;/font&gt;" style="swimlane;whiteSpace=wrap;html=1;" vertex="1" parent="RoErsjgwMX1CylctrKXX-1">
          <mxGeometry x="30" y="36" width="180" height="60" as="geometry" />
        </mxCell>
        <mxCell id="RoErsjgwMX1CylctrKXX-3" value="&lt;div style=&quot;background-color: rgb(255, 255, 255); font-family: Consolas, &amp;quot;Courier New&amp;quot;, monospace; font-weight: normal; font-size: 14px; line-height: 19px; white-space: pre;&quot;&gt;&lt;span style=&quot;font-family: Helvetica; font-size: 12px; font-weight: 700; white-space: normal; background-color: rgb(251, 251, 251);&quot;&gt;&lt;font color=&quot;#cc00cc&quot;&gt;CacheInvalidationEvent&lt;/font&gt;&lt;/span&gt;&lt;br&gt;&lt;/div&gt;" style="swimlane;whiteSpace=wrap;html=1;" vertex="1" parent="1">
          <mxGeometry x="330" y="240" width="260" height="110" as="geometry" />
        </mxCell>
        <mxCell id="RoErsjgwMX1CylctrKXX-4" value="&lt;span style=&quot;font-family: Consolas, &amp;quot;Courier New&amp;quot;, monospace; font-size: 14px; white-space: pre; background-color: rgb(255, 255, 255);&quot;&gt;&lt;font color=&quot;#0000cc&quot;&gt;CacheInvalidationLifetime&lt;/font&gt;&lt;/span&gt;" style="swimlane;whiteSpace=wrap;html=1;" vertex="1" parent="RoErsjgwMX1CylctrKXX-3">
          <mxGeometry x="15" y="36" width="230" height="60" as="geometry" />
        </mxCell>
        <mxCell id="RoErsjgwMX1CylctrKXX-6" value="При возникновении события изменения элемента &lt;b&gt;&lt;font color=&quot;#cc00cc&quot;&gt;Event&lt;/font&gt;&lt;/b&gt; элемент &lt;b&gt;&lt;font color=&quot;#0000cc&quot;&gt;Lifetime&lt;/font&gt;&lt;/b&gt; &lt;b style=&quot;font-size: 14px;&quot;&gt;&lt;font style=&quot;font-size: 14px;&quot; color=&quot;#cc0000&quot;&gt;не будет пересчитан&lt;/font&gt;&lt;/b&gt;" style="text;html=1;align=center;verticalAlign=middle;whiteSpace=wrap;rounded=0;fontSize=14;" vertex="1" parent="1">
          <mxGeometry x="70" y="350" width="240" height="70" as="geometry" />
        </mxCell>
        <mxCell id="RoErsjgwMX1CylctrKXX-7" value="При возникновении события окончания времени жизни элемента &lt;b&gt;&lt;font color=&quot;#0000cc&quot;&gt;Lifetime&lt;/font&gt;&lt;/b&gt;&amp;nbsp;элемент &lt;b&gt;&lt;font color=&quot;#cc00cc&quot;&gt;Event&lt;/font&gt;&lt;/b&gt;&amp;nbsp;&lt;b style=&quot;font-size: 14px;&quot;&gt;&lt;font style=&quot;font-size: 14px;&quot; color=&quot;#006633&quot;&gt;будет пересчитан&lt;/font&gt;&lt;/b&gt;" style="text;html=1;align=center;verticalAlign=middle;whiteSpace=wrap;rounded=0;fontSize=14;" vertex="1" parent="1">
          <mxGeometry x="330" y="350" width="260" height="70" as="geometry" />
        </mxCell>
        <mxCell id="RoErsjgwMX1CylctrKXX-8" value="&lt;b&gt;&lt;font style=&quot;font-size: 16px;&quot;&gt;Схема 1&lt;/font&gt;&lt;/b&gt;" style="text;html=1;align=center;verticalAlign=middle;whiteSpace=wrap;rounded=0;" vertex="1" parent="1">
          <mxGeometry x="70" y="210" width="240" height="30" as="geometry" />
        </mxCell>
        <mxCell id="RoErsjgwMX1CylctrKXX-9" value="&lt;b&gt;&lt;font style=&quot;font-size: 16px;&quot;&gt;Схема 2&lt;/font&gt;&lt;/b&gt;" style="text;html=1;align=center;verticalAlign=middle;whiteSpace=wrap;rounded=0;" vertex="1" parent="1">
          <mxGeometry x="330" y="210" width="240" height="30" as="geometry" />
        </mxCell>
      </root>
    </mxGraphModel>
  </diagram>
</mxfile>
